<svg width="150" height="122" viewBox="0 0 150 122" fill="none" xmlns="http://www.w3.org/2000/svg">
<path d="M22.9638 82.384C16.3504 82.384 11.4864 80.6987 8.37175 77.328C5.29975 73.9573 3.76375 69.52 3.76375 64.016C3.76375 58.4693 4.70242 53.4347 6.57975 48.912C8.49975 44.3467 11.3371 40.6133 15.0918 37.712C18.8464 34.768 22.8998 33.296 27.2518 33.296C31.6464 33.296 35.0811 34.3627 37.5558 36.496C40.0731 38.5867 41.3318 41.424 41.3318 45.008C41.3318 48.5493 40.2224 51.4933 38.0037 53.84C35.8277 56.1867 33.2678 57.36 30.3238 57.36C27.3798 57.36 25.0971 56.72 23.4758 55.44C21.8544 54.1173 21.0438 52.7307 21.0438 51.28C21.0438 49.7867 21.6198 48.6347 22.7718 47.824C23.9664 46.9707 25.6944 46.544 27.9558 46.544C27.4011 47.0987 27.1238 47.8453 27.1238 48.784C27.1238 49.68 27.4011 50.4693 27.9558 51.152C28.5104 51.8347 29.3638 52.176 30.5158 52.176C31.6678 52.176 32.8198 51.5787 33.9718 50.384C35.1238 49.1467 35.6998 47.5253 35.6998 45.52C35.6998 43.5147 35.0811 41.9147 33.8438 40.72C32.6491 39.5253 30.9424 38.928 28.7238 38.928C25.8224 38.928 23.1771 40.1013 20.7878 42.448C18.4411 44.7947 16.6491 47.7813 15.4118 51.408C14.1744 55.0347 13.5558 58.8533 13.5558 62.864C13.5558 66.32 14.3024 69.3707 15.7958 72.016C16.5638 73.3813 17.6944 74.4693 19.1878 75.28C20.7238 76.0907 22.5158 76.496 24.5638 76.496C28.0624 76.496 31.4331 75.3867 34.6758 73.168C37.9184 70.9067 40.6491 68.0053 42.8678 64.464L45.0438 68.368C42.5264 72.464 39.3691 75.8347 35.5718 78.48C31.7744 81.0827 27.5718 82.384 22.9638 82.384ZM69.2483 82.32C65.3229 82.32 62.7203 80.9547 61.4403 78.224C59.2216 80.9973 56.3629 82.384 52.8643 82.384C49.4083 82.384 46.4856 81.2107 44.0963 78.864C41.7496 76.5173 40.5763 73.424 40.5763 69.584C40.5763 63.9947 42.2189 59.536 45.5043 56.208C48.7896 52.88 52.9496 51.216 57.9843 51.216C58.1123 51.216 58.2403 51.216 58.3683 51.216C60.5016 51.216 62.4643 51.5787 64.2563 52.304C65.4083 51.5787 66.7949 51.216 68.4163 51.216C70.0803 51.216 71.2749 51.4293 72.0003 51.856C71.6163 55.0133 71.2109 58.128 70.7843 61.2C70.3576 64.2293 70.0589 66.384 69.8883 67.664C69.5043 70.5653 69.3123 72.656 69.3123 73.936C69.3123 75.6427 69.9949 76.496 71.3603 76.496C72.4269 76.496 73.5576 75.792 74.7523 74.384C75.9469 72.9333 76.9923 70.672 77.8883 67.6C79.1256 68.7093 79.9789 69.9467 80.4483 71.312C79.2109 75.3653 77.5469 78.224 75.4563 79.888C73.3656 81.5093 71.2963 82.32 69.2483 82.32ZM58.9443 56.208C56.2136 56.208 54.0376 57.2533 52.4163 59.344C50.8376 61.392 49.8989 64.464 49.6003 68.56C49.5576 68.944 49.5363 69.3067 49.5363 69.648C49.5363 71.7387 50.0269 73.4027 51.0083 74.64C52.0323 75.8773 53.3336 76.496 54.9123 76.496C57.6003 76.496 59.6269 74.5973 60.9923 70.8L62.5283 56.976C61.2909 56.464 60.0963 56.208 58.9443 56.208ZM80.6948 34.896C81.6761 33.872 82.8708 33.36 84.2788 33.36C85.6868 33.36 86.8814 33.872 87.8628 34.896C88.8868 35.8773 89.3988 37.072 89.3988 38.48C89.3988 39.888 88.8868 41.0827 87.8628 42.064C86.8814 43.0453 85.6868 43.536 84.2788 43.536C82.8708 43.536 81.6761 43.0453 80.6948 42.064C79.7134 41.0827 79.2228 39.888 79.2228 38.48C79.2228 37.072 79.7134 35.8773 80.6948 34.896ZM78.0708 53.648C78.4974 52.88 79.3081 52.304 80.5028 51.92C81.6974 51.4933 82.8708 51.28 84.0228 51.28C85.2174 51.28 86.2628 51.4293 87.1588 51.728C85.4948 64.5707 84.6628 71.056 84.6628 71.184C84.4494 72.0373 84.3428 72.7627 84.3428 73.36C84.3428 73.9147 84.3854 74.4053 84.4708 74.832C84.6414 75.9413 85.4094 76.496 86.7748 76.496C88.1828 76.496 89.4628 75.6 90.6147 73.808C91.8094 71.9733 92.7054 69.904 93.3028 67.6C93.6014 67.7707 94.0708 68.2827 94.7108 69.136C95.3508 69.9893 95.7348 70.6293 95.8628 71.056C95.0094 74.4693 93.5588 77.2213 91.5108 79.312C89.4628 81.4027 87.0094 82.448 84.1508 82.448C81.2921 82.448 79.1588 81.744 77.7508 80.336C76.3854 78.928 75.7028 77.1147 75.7028 74.896C75.7028 74.4267 75.7241 73.936 75.7668 73.424L78.0708 53.648ZM109.523 59.6C109.523 57.7227 108.649 56.784 106.899 56.784C105.193 56.784 103.827 57.8933 102.803 60.112C107.411 63.7387 109.715 67.8133 109.715 72.336C109.715 75.6213 108.798 78.1173 106.963 79.824C105.129 81.5307 102.825 82.384 100.051 82.384C97.2779 82.384 95.2513 81.5307 93.9713 79.824C92.6913 78.0747 92.0513 75.8773 92.0513 73.232C92.0513 72.4213 92.0726 71.824 92.1153 71.44L94.3553 51.92C95.8913 51.4507 97.4486 51.216 99.0273 51.216C101.63 51.216 102.931 52.176 102.931 54.096V54.224C104.638 52.2187 106.814 51.216 109.459 51.216C111.379 51.216 112.873 51.664 113.939 52.56C115.006 53.4133 115.539 54.5653 115.539 56.016C115.539 57.4667 114.985 58.6613 113.875 59.6C112.809 60.496 111.401 60.944 109.651 60.944C109.566 60.944 109.481 60.944 109.395 60.944C109.481 60.4747 109.523 60.0267 109.523 59.6ZM105.555 72.016C105.555 69.5413 104.275 67.0667 101.715 64.592C100.947 70.736 100.563 73.8293 100.563 73.872C100.563 75.664 101.289 76.56 102.739 76.56C104.617 76.56 105.555 75.0453 105.555 72.016ZM133.786 51.216C137.712 51.216 140.976 52.4747 143.578 54.992C146.224 57.5093 147.546 60.5813 147.546 64.208C147.546 69.712 145.925 74.128 142.682 77.456C139.482 80.7413 135.6 82.384 131.034 82.384C126.469 82.384 122.842 81.0827 120.154 78.48C117.509 75.8773 116.186 72.656 116.186 68.816C116.186 63.44 117.829 59.1733 121.114 56.016C124.442 52.816 128.666 51.216 133.786 51.216ZM132.506 56.4C130.501 56.4 128.816 57.552 127.45 59.856C126.085 62.16 125.338 65.0613 125.21 68.56C125.21 71.0347 125.701 73.0827 126.682 74.704C127.706 76.3253 129.242 77.136 131.29 77.136C133.338 77.136 135.045 76.0053 136.41 73.744C137.818 71.4827 138.522 68.9013 138.522 66C138.522 63.0987 138.032 60.7947 137.05 59.088C136.069 57.296 134.554 56.4 132.506 56.4Z" fill="white"/>
</svg>
