<svg width="207" height="31" viewBox="0 0 207 31" fill="none" xmlns="http://www.w3.org/2000/svg">
<g id="Stars">
<path id="Star 3" d="M15.5 0.5L19.6527 9.7843L29.7658 10.8647L22.2192 17.6832L24.3168 27.6353L15.5 22.565L6.68322 27.6353L8.78079 17.6832L1.23415 10.8647L11.3473 9.7843L15.5 0.5Z" fill="black"/>
<path id="Star 4" d="M59.5 0.5L63.6527 9.7843L73.7658 10.8647L66.2192 17.6832L68.3168 27.6353L59.5 22.565L50.6832 27.6353L52.7808 17.6832L45.2342 10.8647L55.3473 9.7843L59.5 0.5Z" fill="black"/>
<path id="Star 5" d="M103.5 0.5L107.653 9.7843L117.766 10.8647L110.219 17.6832L112.317 27.6353L103.5 22.565L94.6832 27.6353L96.7808 17.6832L89.2342 10.8647L99.3473 9.7843L103.5 0.5Z" fill="black"/>
<path id="Star 6" d="M147.5 0.5L151.653 9.7843L161.766 10.8647L154.219 17.6832L156.317 27.6353L147.5 22.565L138.683 27.6353L140.781 17.6832L133.234 10.8647L143.347 9.7843L147.5 0.5Z" fill="black"/>
<path id="Star 7" d="M191.5 0.5L195.653 9.7843L205.766 10.8647L198.219 17.6832L200.317 27.6353L191.5 22.565L182.683 27.6353L184.781 17.6832L177.234 10.8647L187.347 9.7843L191.5 0.5Z" fill="black"/>
</g>
</svg>
